<svg width="166" height="122" viewBox="0 0 166 122" fill="none" xmlns="http://www.w3.org/2000/svg">
<path fill-rule="evenodd" clip-rule="evenodd" d="M56.6133 120.074L76.8044 74.6579C79.1731 69.332 84.4438 65.8887 90.2715 65.8587L118.992 65.712V65.6993L119.349 65.7025C130.245 65.7025 139.09 56.8559 139.09 45.9611C139.09 35.0646 130.245 26.2197 119.349 26.2197L118.992 26.2228V26.2197L86.2522 26.387C80.4245 26.4169 75.1538 29.8602 72.7867 35.1862L64.7197 53.3306L50.3768 21.0705L55.7154 9.06154C58.084 3.73404 63.3531 0.290736 69.1824 0.260753L120.34 0.000373188C123.34 -0.0122512 126.332 0.295465 129.267 0.917216C143.414 3.97706 155.174 13.4012 161.306 26.0035C164.246 32.0427 165.893 38.8109 165.893 45.9579C165.893 52.9408 164.32 59.5623 161.508 65.4958C155.511 78.1423 143.876 87.6563 129.817 90.8613C126.833 91.532 123.785 91.8792 120.725 91.8934C114.681 91.9471 97.7657 92.0323 97.7657 92.0323L88.5719 112.711C87.3916 115.365 85.4916 117.552 83.1592 119.082C83.0945 119.124 83.0283 119.167 82.962 119.209C82.6148 119.429 82.2582 119.636 81.8936 119.826C80.5807 120.511 79.1636 121.004 77.6818 121.272C77.3615 121.33 77.038 121.359 76.7129 121.359C74.2985 121.362 62.209 121.362 62.209 121.362C60.2302 121.362 58.3239 120.906 56.6133 120.074Z" fill="white"/>
<path fill-rule="evenodd" clip-rule="evenodd" d="M83.1601 119.083C83.0938 119.125 83.0291 119.168 82.9628 119.209C82.6157 119.43 82.2575 119.635 81.8929 119.826C80.5595 120.523 79.114 121.021 77.6054 121.286C77.3245 121.335 77.0404 121.36 76.7548 121.36C74.443 121.361 62.2083 121.361 62.2083 121.361C60.2294 121.361 58.3232 120.905 56.6141 120.075C53.9504 118.78 51.7616 116.575 50.5102 113.76L0 0.149803H19.055C23.737 0.149803 28.0656 2.35276 30.8304 5.96965L78.7542 113.76C79.7278 115.95 81.2696 117.771 83.1601 119.083Z" fill="white"/>
</svg>
